<svg xmlns="http://www.w3.org/2000/svg" version="1.1" viewBox="1.99 2.94 18.03 18.13">
<g stroke-width="2.00" fill="none" stroke-linecap="butt">
<path stroke="#667378" vector-effect="non-scaling-stroke" d="   M 18.52 11.00   A 0.50 0.50 0.0 0 0 19.02 10.50   L 18.98 4.43   A 0.50 0.50 0.0 0 0 18.41 3.94   L 10.43 5.04   A 0.50 0.50 0.0 0 0 10.00 5.53   L 9.98 10.50   A 0.50 0.50 0.0 0 0 10.48 11.00   L 18.52 11.00"/>
<path stroke="#667378" vector-effect="non-scaling-stroke" d="   M 8.50 11.01   A 0.53 0.53 0.0 0 0 9.03 10.48   L 9.00 5.77   A 0.53 0.53 0.0 0 0 8.40 5.25   L 3.47 5.98   A 0.53 0.53 0.0 0 0 3.02 6.50   L 2.99 10.47   A 0.53 0.53 0.0 0 0 3.52 11.00   L 8.50 11.01"/>
<path stroke="#667378" vector-effect="non-scaling-stroke" d="   M 3.01 17.59   A 0.43 0.43 0.0 0 0 3.38 18.01   L 8.50 18.76   A 0.43 0.43 0.0 0 0 8.99 18.34   L 9.04 12.43   A 0.43 0.43 0.0 0 0 8.61 12.00   L 3.42 11.98   A 0.43 0.43 0.0 0 0 2.99 12.41   L 3.01 17.59"/>
<path stroke="#667378" vector-effect="non-scaling-stroke" d="   M 18.55 20.06   A 0.40 0.40 0.0 0 0 19.00 19.66   L 19.00 12.40   A 0.40 0.40 0.0 0 0 18.60 12.00   L 10.39 11.99   A 0.40 0.40 0.0 0 0 9.99 12.39   L 9.99 18.57   A 0.40 0.40 0.0 0 0 10.34 18.97   L 18.55 20.06"/>
</g>
<path fill="#000000" d="   M 18.52 11.00   L 10.48 11.00   A 0.50 0.50 0.0 0 1 9.98 10.50   L 10.00 5.53   A 0.50 0.50 0.0 0 1 10.43 5.04   L 18.41 3.94   A 0.50 0.50 0.0 0 1 18.98 4.43   L 19.02 10.50   A 0.50 0.50 0.0 0 1 18.52 11.00   Z"/>
<path fill="#000000" d="   M 8.50 11.01   L 3.52 11.00   A 0.53 0.53 0.0 0 1 2.99 10.47   L 3.02 6.50   A 0.53 0.53 0.0 0 1 3.47 5.98   L 8.40 5.25   A 0.53 0.53 0.0 0 1 9.00 5.77   L 9.03 10.48   A 0.53 0.53 0.0 0 1 8.50 11.01   Z"/>
<path fill="#000000" d="   M 3.01 17.59   L 2.99 12.41   A 0.43 0.43 0.0 0 1 3.42 11.98   L 8.61 12.00   A 0.43 0.43 0.0 0 1 9.04 12.43   L 8.99 18.34   A 0.43 0.43 0.0 0 1 8.50 18.76   L 3.38 18.01   A 0.43 0.43 0.0 0 1 3.01 17.59   Z"/>
<path fill="#000000" d="   M 18.55 20.06   L 10.34 18.97   A 0.40 0.40 0.0 0 1 9.99 18.57   L 9.99 12.39   A 0.40 0.40 0.0 0 1 10.39 11.99   L 18.60 12.00   A 0.40 0.40 0.0 0 1 19.00 12.40   L 19.00 19.66   A 0.40 0.40 0.0 0 1 18.55 20.06   Z"/>
</svg>